<?xml version="1.0" encoding="UTF-8"?><svg id="Layer_2" xmlns="http://www.w3.org/2000/svg" viewBox="0 0 463.65 130.27"><defs><style>.cls-1{fill:#fff;}</style></defs><g id="Layer_1-2"><path class="cls-1" d="M157.55,107.81h-3.79v-2.31h12.78v2.31h-3.47v2.28h3.27v7.97h-11.87v-7.97h3.08v-2.28ZM166.74,127.14c-4.44.71-9.2,1.42-12.56,1.94l-.43-2.31c1.48-.17,3.3-.4,5.35-.66v-3.25h-4.61v-2.05h4.61v-2.42h2.45v2.42h4.78v2.05h-4.78v2.93c1.68-.26,3.42-.48,5.13-.74l.06,2.08ZM156.41,115.98h1.48v-3.82h-1.48v3.82ZM161.1,107.81h-1.59v2.28h1.59v-2.28ZM159.51,112.16v3.82h1.59v-3.82h-1.59ZM164.32,112.16h-1.62v3.82h1.62v-3.82ZM178.05,127.77c.14,0,.28-.03.37-.14s.14-.37.2-.83c.03-.51.06-1.62.06-3.05.46.37,1.08.68,1.62.88,0,1.28-.09,2.93-.2,3.53-.14.63-.37,1.02-.65,1.28-.34.28-.83.4-1.28.4h-1.14c-.51,0-1.08-.17-1.45-.6-.37-.4-.51-.91-.51-2.96v-12.27h-4.07c-.34,4.47-.8,9.54-1.14,12.67l4.33-.91c0,.71.06,1.68.14,2.22-5.67,1.31-6.55,1.62-7.12,1.99-.14-.63-.54-1.85-.83-2.45.63-.17,1-.46,1.2-1.77.34-1.54,1.22-12.79,1.59-17.77h-2.05v-2.36h12.64v2.36h-8.23l-.31,3.64h6.09v14.75c0,.68,0,1.11.09,1.22.06.09.14.14.28.14h.37ZM172.75,123.27c-.34-1.71-1.17-4.44-1.91-6.44l1.82-.51c.8,2.02,1.65,4.67,1.99,6.38l-1.91.57Z"/><path class="cls-1" d="M216.86,121.07v2.51h-26.11v-2.51h2.82v-13.72h5.98v-3.42h2.45v3.42h3.56v-3.42h2.53v3.42h6.21v13.72h2.56ZM201.6,125.32c-2.19,1.77-5.75,3.7-8.66,4.84-.46-.54-1.4-1.42-2.02-1.91,2.96-1.08,6.46-2.96,8.2-4.53l2.48,1.59ZM196.13,109.8v4.24h3.42v-4.24h-3.42ZM196.13,121.07h3.42v-4.58h-3.42v4.58ZM202,109.8v4.24h3.56v-4.24h-3.56ZM205.56,116.49h-3.56v4.58h3.56v-4.58ZM208.01,123.69c3.02,1.42,6.35,3.25,8.31,4.58l-2.42,1.77c-1.79-1.31-4.87-3.19-7.75-4.61l1.85-1.74ZM208.09,109.8v4.24h3.53v-4.24h-3.53ZM208.09,121.07h3.53v-4.58h-3.53v4.58Z"/><path class="cls-1" d="M252.6,105.24v24.91h-2.82v-1.4h-18.05v1.4h-2.68v-24.91h23.55ZM249.78,126.31v-18.62h-18.05v18.62h18.05ZM248.44,121.93v2.19h-15.18v-2.19h6.18v-4.21h-5.04v-2.25h5.04v-3.45h-5.78v-2.33h14.21v2.33h-5.95v3.45h5.32v2.25h-5.32v4.21h3.93c-.51-.88-1.59-2.16-2.53-3.1l1.68-.91c.97.88,2.11,2.16,2.65,2.96l-1.74,1.05h2.53Z"/><path class="cls-1" d="M275.21,106.1c-.85,2.33-1.88,5.13-2.79,7.35,1.96,2.31,2.42,4.33,2.42,6.04s-.37,2.88-1.25,3.5c-.46.28-1,.46-1.62.54-.54.09-1.28.09-1.96.06-.03-.63-.26-1.65-.68-2.31.63.06,1.11.09,1.54.03.34,0,.66-.06.88-.23.4-.29.54-1,.54-1.85,0-1.48-.46-3.36-2.36-5.5.71-1.88,1.48-4.24,2.02-6.12h-3.45v22.55h-2.53v-24.94h6.95l.4-.11,1.91,1ZM279.63,118.68c-.83,3.25-2.28,6.63-3.76,8.83-.46-.4-1.54-1.08-2.08-1.4,1.51-1.96,2.73-5.04,3.45-8l2.39.57ZM284.1,115.21v11.76c0,1.4-.26,2.22-1.17,2.65-.91.46-2.25.51-4.21.51-.09-.8-.43-1.96-.8-2.73,1.31.03,2.62.03,2.99,0,.37,0,.48-.09.48-.46v-11.73h-5.81v-2.48h15.12v2.48h-6.61ZM289.17,108.49h-12.33v-2.48h12.33v2.48ZM287.8,118.03c1.31,2.79,2.65,6.41,3.08,8.66l-2.39.91c-.4-2.28-1.62-5.98-2.9-8.83l2.22-.74Z"/><path class="cls-1" d="M311.69,118.51c-1.08.34-2.16.68-3.25,1v7.46c0,1.37-.28,2.14-1.05,2.53-.83.46-2.02.54-3.87.54-.11-.68-.46-1.85-.8-2.59,1.17.03,2.31.03,2.62.03.37,0,.51-.11.51-.51v-6.69l-3.5,1.03-.63-2.59c1.14-.26,2.56-.66,4.13-1.05v-5.58h-3.67v-2.53h3.67v-5.5h2.59v5.5h3.02v2.53h-3.02v4.84l2.9-.83.34,2.42ZM326.95,108.89v11.42h-2.62v-1.68h-8.54c-.23,3.93-1.11,8.51-3.9,11.65-.43-.57-1.54-1.57-2.11-1.94,3.08-3.39,3.42-8.31,3.42-12.07v-7.37h6.52c-.48-1.14-1.45-2.71-2.33-3.84l2.36-.94c1.05,1.25,2.11,2.85,2.56,3.96l-1.96.83h6.61ZM324.34,116.12v-4.87h-8.49v4.87h8.49Z"/><path class="cls-1" d="M348.29,124.35c-3.1,1.08-6.41,2.19-8.97,3.02l-.63-2.7c1.02-.28,2.28-.63,3.64-1.05v-7.23h-3.08v-2.45h3.08v-5.67h-3.36v-2.45h9.05v2.45h-3.16v5.67h2.7v2.45h-2.7v6.44c.97-.31,1.99-.63,2.96-.97l.46,2.51ZM365.12,126.83v2.42h-18.2v-2.42h8.26v-3.39h-6.18v-2.39h6.18v-2.93h-5.92v-12.81h14.58v12.81h-5.95v2.93h6.32v2.39h-6.32v3.39h7.23ZM351.68,110.62h3.73v-3.07h-3.73v3.07ZM351.68,115.86h3.73v-3.13h-3.73v3.13ZM361.3,107.55h-3.64v3.07h3.64v-3.07ZM361.3,112.73h-3.64v3.13h3.64v-3.13Z"/><path class="cls-1" d="M66.39,52.37l-3.06,5.95c-1.02,1.98-1.98,4.14-1.98,6.46,0,2.44,1.53,3.06,3.06,3.63.45.11.62.23.62.4,0,.23-.28.28-.68.28s-2.44-.17-5.55-.17c-2.27,0-3.74.17-4.42.17-.57,0-.74-.11-.74-.28,0-.4.68-.62,1.08-.91,2.27-1.81,5.33-6.52,6.57-8.95l13.88-26.97c.17-.28.28-.45.4-.45h.11c.17,0,.34.23.45.45l16.66,31.16c.96,1.76,2.1,3.4,3.8,4.7.62.45,1.3.68,1.3.96,0,.17-.28.28-.79.28-.4,0-3.06-.17-6.35-.17-4.65,0-6.52.17-6.86.17-.28,0-.57-.06-.57-.17,0-.23.28-.34.74-.45,1.3-.45,1.59-1.53,1.59-2.95,0-1.02-1.19-3.8-2.55-6.46l-3.23-6.69h-13.48ZM73.07,39.16l-5.95,11.78h12.01l-6.06-11.78Z"/><path class="cls-1" d="M113.07,61.38c0,5.67,2.15,6.12,6.97,6.12h3c4.76,0,11.45-2.55,14.9-6.57.62-.74.91-1.36,1.19-1.36.17,0,.34.11.34.4,0,.23-.17.51-.23.79l-2.32,8.16h-33.32c-.96,0-1.25-.11-1.25-.28,0-.11.4-.17,1.36-.51,2.21-.96,2.78-3.06,2.78-8.1v-22.38c0-2.32-.91-4.02-2.44-4.53-.4-.17-.57-.28-.57-.45s.34-.23.85-.23c.91,0,3.63.23,5.44.23s4.53-.23,5.44-.23c.51,0,.68.06.68.28,0,.17-.28.23-.51.34-1.7.74-2.32,2.27-2.32,4.59v23.74Z"/><path class="cls-1" d="M157.21,52.37l-3.06,5.95c-1.02,1.98-1.98,4.14-1.98,6.46,0,2.44,1.53,3.06,3.06,3.63.45.11.62.23.62.4,0,.23-.28.28-.68.28s-2.44-.17-5.55-.17c-2.27,0-3.74.17-4.42.17-.57,0-.74-.11-.74-.28,0-.4.68-.62,1.08-.91,2.27-1.81,5.33-6.52,6.57-8.95l13.88-26.97c.17-.28.28-.45.4-.45h.11c.17,0,.34.23.45.45l16.66,31.16c.96,1.76,2.1,3.4,3.8,4.7.62.45,1.3.68,1.3.96,0,.17-.28.28-.79.28-.4,0-3.06-.17-6.35-.17-4.65,0-6.52.17-6.86.17-.28,0-.57-.06-.57-.17,0-.23.28-.34.74-.45,1.3-.45,1.59-1.53,1.59-2.95,0-1.02-1.19-3.8-2.55-6.46l-3.23-6.69h-13.48ZM163.89,39.16l-5.95,11.78h12.01l-6.06-11.78Z"/><path class="cls-1" d="M200.26,62.79c0,2.78.74,4.65,2.78,5.55.57.28.79.34.79.45,0,.06-.11.11-.62.11h-12.64c-.28,0-.45,0-.45-.11s.4-.23.91-.45c2.15-1.13,2.66-2.78,2.66-5.55v-23.8c0-1.7-.06-4.59-2.27-5.38-.62-.23-1.19-.28-1.19-.62,0-.23.23-.34,1.08-.34h21.19c10.54,0,14.9,3.29,14.9,8.33,0,7.82-9.29,8.84-15.24,8.84v.11c5.72.68,11.16,2.66,13.15,8.61,1.3,3.85,3.4,8.9,5.16,9.52.51.34.96.51.96.74,0,.06-.28.11-2.15.11h-7.48l-2.72-7.42c-2.49-6.8-3.46-10.71-10.54-10.88l-8.27-.23v12.41ZM200.26,48.97h10.26c6.18,0,9.29-3.85,9.29-7.65,0-4.19-2.89-7.25-8.9-7.25h-10.65v14.9Z"/><path class="cls-1" d="M244.28,52.37l-3.06,5.95c-1.02,1.98-1.98,4.14-1.98,6.46,0,2.44,1.53,3.06,3.06,3.63.45.11.62.23.62.4,0,.23-.28.28-.68.28s-2.44-.17-5.55-.17c-2.27,0-3.74.17-4.42.17-.57,0-.74-.11-.74-.28,0-.4.68-.62,1.08-.91,2.27-1.81,5.33-6.52,6.57-8.95l13.88-26.97c.17-.28.28-.45.4-.45h.11c.17,0,.34.23.45.45l16.66,31.16c.96,1.76,2.1,3.4,3.8,4.7.62.45,1.3.68,1.3.96,0,.17-.28.28-.79.28-.4,0-3.06-.17-6.35-.17-4.65,0-6.52.17-6.86.17-.28,0-.57-.06-.57-.17,0-.23.28-.34.74-.45,1.3-.45,1.59-1.53,1.59-2.95,0-1.02-1.19-3.8-2.55-6.46l-3.23-6.69h-13.48ZM250.97,39.16l-5.95,11.78h12.01l-6.06-11.78Z"/><path class="cls-1" d="M334.94,64.89c-4.76,3.85-11.05,5.16-17.11,5.16-11.11,0-21.42-6.23-21.42-19.26,0-11.67,10.31-19.26,21.42-19.26,5.21,0,11.62,1.36,16.26,4.31l-1.76,5.33c-.23.68-.62,1.93-.79,1.93s-.45-.85-.62-1.47c-1.19-4.93-4.7-8.5-13.09-8.67-10.31,0-13.82,9.4-13.82,17.85s3.97,17.85,16.09,17.85c5.55,0,9.75-3,12.24-8.73.28-.68.34-1.19.62-1.19.23,0,.28.17.51,1.02l1.47,5.16Z"/><path class="cls-1" d="M349.72,52.37l-3.06,5.95c-1.02,1.98-1.98,4.14-1.98,6.46,0,2.44,1.53,3.06,3.06,3.63.45.11.62.23.62.4,0,.23-.28.28-.68.28s-2.44-.17-5.55-.17c-2.27,0-3.74.17-4.42.17-.57,0-.74-.11-.74-.28,0-.4.68-.62,1.08-.91,2.27-1.81,5.33-6.52,6.57-8.95l13.88-26.97c.17-.28.28-.45.4-.45h.11c.17,0,.34.23.45.45l16.66,31.16c.96,1.76,2.1,3.4,3.8,4.7.62.45,1.3.68,1.3.96,0,.17-.28.28-.79.28-.4,0-3.06-.17-6.35-.17-4.65,0-6.52.17-6.86.17-.28,0-.57-.06-.57-.17,0-.23.28-.34.74-.45,1.3-.45,1.59-1.53,1.59-2.95,0-1.02-1.19-3.8-2.55-6.46l-3.23-6.69h-13.48ZM356.4,39.16l-5.95,11.78h12.01l-6.06-11.78Z"/><path class="cls-1" d="M392.78,62.79c0,2.78.74,4.65,2.78,5.55.57.28.79.34.79.45,0,.06-.11.11-.62.11h-12.64c-.28,0-.45,0-.45-.11s.4-.23.91-.45c2.15-1.13,2.66-2.78,2.66-5.55v-23.8c0-1.7-.06-4.59-2.27-5.38-.62-.23-1.19-.28-1.19-.62,0-.23.23-.34,1.08-.34h21.19c10.54,0,14.9,3.29,14.9,8.33,0,7.82-9.29,8.84-15.24,8.84v.11c5.72.68,11.16,2.66,13.15,8.61,1.3,3.85,3.4,8.9,5.16,9.52.51.34.96.51.96.74,0,.06-.28.11-2.15.11h-7.48l-2.72-7.42c-2.49-6.8-3.46-10.71-10.54-10.88l-8.27-.23v12.41ZM392.78,48.97h10.26c6.18,0,9.29-3.85,9.29-7.65,0-4.19-2.89-7.25-8.9-7.25h-10.65v14.9Z"/><path class="cls-1" d="M435.49,49.08h10.48c4.14,0,7.76-1.93,8.56-4.25.11-.34.28-.51.45-.51s.23.28.23.85v9.35c0,.96-.06,1.19-.23,1.19-.23,0-.28-.4-.45-.79-1.64-4.19-6.29-4.42-10.26-4.42h-8.78v11.96c0,4.14,1.42,5.04,5.27,5.04h6.4c4.76,0,11.11-2.66,14.79-6.18.68-.62,1.42-1.19,1.53-1.19s.17.06.17.17-.06.23-.11.45l-2.49,8.16h-34.51c-1.3,0-1.7-.06-1.7-.23s1.19-.51,1.59-.85c2.1-1.64,2.49-3.23,2.49-8.39v-19.26c0-3.68-.23-6.12-2.49-6.69-.4-.17-.96-.34-.96-.51,0-.23.23-.34,1.08-.34h32.01l1.53,5.33c.17.57.51,1.42.51,2.1,0,.23-.11.45-.28.45-.23,0-.51-.23-.68-.51-2.38-3.91-8.39-5.95-13.71-5.95h-10.43v15.01Z"/><path class="cls-1" d="M14.32,32.41c1.89,2.12,3.07,4.49,3.78,6.37.47,1.18.83,2.36,1.3,3.42.71,1.89,1.3,3.9,2.24,5.78.83,1.53,2.6,4.37,5.31,5.67-.24-5.43-1.42-10.03-3.66-13.69-2.12-3.66-5.43-6.26-8.97-7.55Z"/><path class="cls-1" d="M43.03,16.49c-.35-.12-.71-.24-1.06-.47-4.49-1.89-10.39-.12-13.34,3.9-2.83,3.9-3.07,9.56-.71,13.93l3.9-.59c-.93-5.8,2.49-12.37,11.21-16.76Z"/><path class="cls-1" d="M28.64,40.99c-.12,1.42,0,3.19.83,4.25.24.24.47.47.71.71.24.24.59.47.71.71l.12.12v-1.06c.12-3.19.24-6.49.59-9.56l-3.07.47c.24,1.18.12,2.48.12,3.78v.59Z"/><path class="cls-1" d="M32.88,14.49c1.3-3.42,2.24-6.85,2.95-10.39.12-.59.24-1.06.24-1.65.12-.59.12-1.18,0-1.65-.12-.35-.35-.71-.59-.71-.35,0-.83.47-1.3,1.3-.35.59-.59,1.3-.94,1.89-1.65,3.9-2.48,8.38-3.19,12.75.83-.59,1.89-1.18,2.83-1.53Z"/><path class="cls-1" d="M43.7,13.09c1.18.47,2.24.94,3.3.59,1.06-.59,2.24-1.18,3.3-1.77,3.19-1.89,6.02-4.49,8.38-7.44-2.48-2.01-6.26-2.01-8.97-1.65-1.06.12-2.01.35-2.95.47-2.6.47-5.31,1.06-8.14.71-.59,2.95-1.42,5.78-2.36,8.62,2.48-.71,5.08-.47,7.44.47Z"/><path class="cls-1" d="M61.35,5.75c-2.6,3.54-5.9,6.61-9.56,8.85-1.18.71-2.48,1.42-3.66,2.01-1.53.83-3.19,1.65-4.72,2.71-.94.71-1.89,1.53-2.83,2.48.35-.24.71-.47,1.06-.59,2.01-.94,4.25-1.42,6.37-1.77,1.89-.35,3.66-.59,5.31-1.3,4.96-2.01,8.5-7.2,8.5-12.51v-.47c-.12.12-.24.35-.47.59Z"/><path class="cls-1" d="M43.39,33.14c-2.24,1.3-4.37,2.36-6.02,4.13-1.65,1.65-2.71,3.9-3.19,6.14,4.13-1.18,7.79-3.42,10.62-6.61,2.12-2.36,3.78-5.08,4.72-8.14-1.42,1.53-3.07,2.6-4.6,3.42-.35.47-.94.71-1.53,1.06Z"/><path class="cls-1" d="M16.88,9.18c2.71,2.95,4.01,8.03,5.19,12.87.35,1.42.71,2.95,1.18,4.37.24-2.71,1.06-5.31,2.6-7.55.47-.59.94-1.18,1.53-1.77-1.89-4.01-4.01-7.79-6.49-11.45-.94-1.42-2.01-2.83-3.42-3.9C15.82.68,13.69.09,10.98.21c-2.6,0-5.08.47-7.55,1.3-.83.35-1.89.71-2.6,1.42-.35.35-.71.83-.83,1.3,3.07-.35,5.9-.24,8.38.35,3.54.71,6.49,2.36,8.5,4.6Z"/><path class="cls-1" d="M22.71,3.98c1.89,2.71,3.54,5.55,5.08,8.38.59-3.3,1.3-6.61,2.6-9.8-.35-.12-.71-.24-.94-.35-.83-.35-1.77-.71-2.71-1.06C23.89.09,21.41-.27,19.4.21c1.42,1.06,2.48,2.48,3.3,3.78Z"/><path class="cls-1" d="M28.3,80.56c.29-.94.57-1.89.86-2.83,0-.12.14-.24.14-.35,1.15-3.54,2.15-7.2,2.72-10.98.14-.83.29-1.65.29-2.48.14-1.42.14-2.71.14-4.13,0-3.42-.43-6.73-.72-10.03,0,0-1.86-1.53-2.29-1.89-.14-.12-.29-.35-.43-.47v.24l.29,2.24c.57,4.6,1,9.21.72,13.81-.14,2.48-.72,4.96-1.29,7.55-.57,2.24-1.15,4.49-1.86,6.61-.29.71-.43,1.42-.72,2.24-.66,2.08-1.32,4.19-1.91,6.3h2.3c.54-1.92,1.15-3.86,1.77-5.83Z"/></g></svg>