<?xml version="1.0" encoding="UTF-8"?><svg id="Layer_2" xmlns="http://www.w3.org/2000/svg" viewBox="0 0 463.65 123.23"><defs><style>.cls-1{fill:#fff;}</style></defs><g id="Layer_1-2"><g id="Group_219"><path id="Path_138" class="cls-1" d="M149.79,100.94h-3.89v-1.88h12.49v1.88h-3.5v2.55h3.25v7.73h-11.45v-7.73h3.11v-2.55ZM158.63,119.98c-4.37.73-9.04,1.51-12.35,2.02l-.39-1.76c1.48-.23,3.39-.5,5.46-.81v-3.53h-4.76v-1.65h4.76v-2.66h1.96v2.66h4.93v1.65h-4.93v3.25c1.71-.25,3.5-.53,5.26-.81l.05,1.65ZM148.25,109.54h1.79v-4.37h-1.79v4.37ZM153.26,100.94h-1.88v2.55h1.88v-2.55ZM151.39,109.54h1.88v-4.37h-1.88v4.37ZM156.51,105.17h-1.88v4.37h1.88v-4.37ZM169.75,121.1c.15.02.31-.03.42-.14.14-.24.22-.51.23-.78.03-.5.08-1.57.08-3,.38.33.83.57,1.32.7,0,1.12-.07,2.24-.2,3.36-.07.45-.27.87-.59,1.2-.34.23-.73.34-1.14.34h-1.09c-.49.02-.96-.16-1.32-.5-.36-.34-.46-.78-.46-2.74v-12.54h-4.52c-.46,4.62-.95,10.05-1.34,13.16l4.73-1.01c0,.57.05,1.14.14,1.71-2.45.38-4.84,1.05-7.14,1.99-.19-.66-.42-1.3-.7-1.93.59-.2.95-.42,1.14-1.57.36-1.57,1.4-13.47,1.85-18.25h-2.13v-1.92h12.31v1.9h-8.32c-.11,1.09-.25,2.49-.39,4.03h6.13v14.61c-.04.42,0,.85.11,1.26.08.08.19.12.31.11h.56ZM164.66,116.45c-.53-2.23-1.22-4.42-2.07-6.55l1.45-.42c.87,2.11,1.6,4.28,2.18,6.49l-1.57.48Z"/><path id="Path_139" class="cls-1" d="M206.15,114.63v1.99h-25.56v-1.99h2.8v-13.69h5.96v-3.42h1.96v3.42h4.09v-3.44h1.99v3.44h6.22v13.69h2.55ZM190.89,118.3c-2.57,2.02-5.42,3.66-8.45,4.87-.39-.42-1.12-1.12-1.57-1.51,2.91-1.05,5.63-2.58,8.04-4.54l1.99,1.18ZM185.41,107.55h3.95v-4.68h-3.95v4.68ZM185.41,114.63h3.95v-5.15h-3.95v5.15ZM191.31,107.55h4.09v-4.68h-4.09v4.68ZM195.4,109.48h-4.09v5.15h4.09v-5.15ZM197.45,117.07c2.82,1.33,5.54,2.86,8.15,4.56l-1.85,1.4c-2.47-1.72-5.06-3.27-7.75-4.62l1.45-1.34ZM197.39,107.55h4.14v-4.68h-4.14v4.68ZM197.39,114.63h4.14v-5.15h-4.14v5.15Z"/><path id="Path_140" class="cls-1" d="M239.58,98.84v24.3h-2.16v-1.4h-18.73v1.4h-2.07v-24.3h22.96ZM237.42,100.78h-18.73v19.04h18.73v-19.04ZM235.8,115.48v1.76h-15.26v-1.77h6.44v-4.7h-5.26v-1.79h5.26v-3.98h-6.05v-1.88h14.31v1.88h-6.3v3.98h5.6v1.79h-5.6v4.7h6.85ZM232.02,111.28c1.06.9,2.01,1.92,2.83,3.05l-1.43.84c-.79-1.15-1.7-2.21-2.71-3.16l1.32-.73Z"/><path id="Path_141" class="cls-1" d="M259.97,99.49c-.84,2.28-1.9,5.02-2.88,7.22,1.64,1.61,2.57,3.8,2.6,6.1.14,1.19-.28,2.38-1.14,3.22-.46.3-.99.48-1.54.53-.64.05-1.29.06-1.93.03-.05-.64-.24-1.27-.56-1.82.65.03,1.2.06,1.68.03.3-.02.6-.1.87-.25.48-.52.71-1.23.62-1.93-.08-2.15-1.01-4.18-2.58-5.66.81-2.02,1.68-4.42,2.27-6.3h-4.06v22.45h-1.99v-24.35h6.86l.34-.08,1.45.81ZM264.42,111.83c-.78,3.05-2.06,5.95-3.78,8.59-.52-.43-1.08-.79-1.68-1.09,1.68-2.39,2.89-5.08,3.56-7.92l1.9.42ZM268.59,108.31v12.18c0,1.18-.23,1.82-1.04,2.15-1.31.39-2.67.53-4.03.42-.12-.73-.34-1.45-.65-2.13,1.46.06,2.74.03,3.11.03.42-.03.53-.14.53-.48v-12.18h-5.96v-1.96h14.84v1.96h-6.8ZM273.88,101.67h-12.12v-1.96h12.12v1.96ZM272.23,111.36c1.36,2.68,2.43,5.49,3.19,8.4l-1.93.67c-.67-2.95-1.67-5.82-3-8.54l1.74-.53Z"/><path id="Path_142" class="cls-1" d="M294.26,111.61c-1.12.36-2.24.7-3.36,1.03v7.89c0,1.14-.25,1.74-.98,2.07-1.18.39-2.43.54-3.67.42-.14-.7-.37-1.37-.67-2.02,1.29.03,2.46.03,2.77.03.36,0,.53-.11.53-.53v-7.22l-3.61,1.09-.56-2.05c1.14-.25,2.6-.67,4.17-1.14v-6.02h-3.75v-1.99h3.75v-5.6h2.02v5.6h3.22v1.99h-3.22v5.43l3.11-.92.25,1.93ZM309.33,113.29h-2.05v-1.76h-9.18c.08,4.22-1.27,8.35-3.83,11.7-.47-.57-1.01-1.07-1.63-1.48,3.08-3.39,3.42-8.21,3.42-11.93v-7.42h13.27v10.89ZM307.27,104.27h-9.15v5.29h9.15v-5.29ZM301.9,97.66c1.06,1.18,1.96,2.49,2.69,3.89l-1.96.84c-.7-1.44-1.56-2.79-2.58-4.03l1.85-.7Z"/><path id="Path_143" class="cls-1" d="M328.51,117.35c-3,1.01-6.19,2.1-8.68,2.91l-.48-2.1c1.04-.31,2.33-.7,3.75-1.18v-7.52h-3.19v-1.97h3.19v-6.07h-3.47v-1.96h8.68v1.96h-3.22v6.07h2.83v1.96h-2.83v6.93l3.05-1.01.37,1.98ZM345.22,120.31v1.9h-18.03v-1.9h8.51v-3.83h-6.36v-1.9h6.36v-3.28h-6.02v-12.46h14.22v12.46h-6.1v3.28h6.52v1.9h-6.52v3.84h7.42ZM331.59,104.19h4.26v-3.52h-4.26v3.52ZM331.59,109.48h4.26v-3.59h-4.26v3.59ZM341.92,100.66h-4.29v3.53h4.28v-3.53ZM341.92,105.9h-4.29v3.58h4.28v-3.58Z"/><path id="Path_144" class="cls-1" d="M70.55,46.71l-3.01,5.85c-1.15,1.93-1.81,4.11-1.95,6.35,0,2.4,1.5,3.01,3.01,3.57.46.11.61.23.61.39,0,.23-.28.28-.67.28s-2.4-.17-5.46-.17c-2.23,0-3.68.17-4.34.17-.56,0-.72-.11-.72-.28,0-.39.67-.61,1.06-.89,2.61-2.57,4.79-5.54,6.46-8.8l13.65-26.52c.17-.28.28-.44.39-.44h.12c.17,0,.34.23.46.44l16.38,30.64c.9,1.79,2.17,3.36,3.73,4.62.61.46,1.28.67,1.28.95,0,.17-.28.28-.78.28-.39,0-3.01-.17-6.24-.17-4.56,0-6.41.17-6.74.17-.28,0-.56-.05-.56-.17,0-.23.28-.34.72-.46,1.28-.46,1.56-1.5,1.56-2.9-.52-2.23-1.37-4.36-2.52-6.34l-3.18-6.57h-13.26ZM77.12,33.73l-5.85,11.59h11.81l-5.96-11.59Z"/><path id="Path_145" class="cls-1" d="M126.48,54.63l12.31-27.52h8.75c.67,0,.78.17.78.34s-.34.34-.78.46c-1.84.39-2.34,2.34-2.34,4.96v21.17c0,3.29.11,7.75,3.45,8.41.46.11.89.34.89.44,0,.17-.46.28-.89.28-.28,0-1.78-.17-6.57-.17-4.29,0-5.79.17-6.35.17-.33,0-.67-.11-.67-.28,0-.11.34-.23.89-.39,2.84-.78,3.01-5.18,3.01-8.47v-23.13h-.11l-13.93,30.31c-.11.34-.89,2.23-1.39,2.23h-.11c-.61,0-1.17-1.67-1.45-2.28l-13.76-30.25h-.11v21.11c0,3.9.5,8.8,3.68,10.08.72.46,1.17.67,1.17.84,0,.05-.28.05-.72.05h-9.64c-.46,0-.78-.05-.78-.17,0-.17.39-.28.78-.5,3.06-1.67,4.12-6.74,4.12-10.31v-18.39c0-2.05-.5-5.35-2.62-5.79-.23-.06-.39-.26-.39-.5,0-.11.17-.23.39-.23h9.19l13.2,27.53Z"/><path id="Path_146" class="cls-1" d="M162.35,46.71l-3.01,5.85c-1.15,1.93-1.81,4.11-1.95,6.35,0,2.4,1.5,3.01,3.01,3.57.46.11.61.23.61.39,0,.23-.28.28-.67.28s-2.4-.17-5.46-.17c-2.23,0-3.68.17-4.34.17-.56,0-.72-.11-.72-.28,0-.39.67-.61,1.06-.89,2.61-2.57,4.79-5.54,6.46-8.8l13.65-26.52c.17-.28.28-.44.39-.44h.11c.17,0,.34.23.46.44l16.38,30.64c.9,1.79,2.17,3.36,3.73,4.62.61.46,1.28.67,1.28.95,0,.17-.28.28-.78.28-.39,0-3.01-.17-6.24-.17-4.56,0-6.41.17-6.74.17-.28,0-.56-.05-.56-.17,0-.23.28-.34.72-.46,1.28-.46,1.56-1.5,1.56-2.9-.51-2.23-1.36-4.37-2.51-6.35l-3.18-6.57h-13.27ZM168.92,33.73l-5.85,11.59h11.81l-5.96-11.59Z"/><path id="Path_147" class="cls-1" d="M204.68,56.96c0,2.74.72,4.56,2.74,5.46.56.28.78.34.78.46,0,.06-.11.11-.61.11h-12.42c-.28,0-.46,0-.46-.11s.39-.23.89-.46c2.12-1.11,2.62-2.74,2.62-5.46v-23.4c0-1.67-.05-4.51-2.23-5.29-.61-.23-1.17-.28-1.17-.61,0-.23.23-.34,1.06-.34h20.84c10.36,0,14.65,3.23,14.65,8.19,0,7.69-9.14,8.69-14.99,8.69v.11c5.63.67,10.97,2.62,12.93,8.47,1.28,3.79,3.34,8.75,5.07,9.36.5.34.95.5.95.72,0,.06-.28.11-2.12.11h-7.35l-2.67-7.29c-2.45-6.68-3.4-10.53-10.36-10.7l-8.13-.23v12.2ZM204.68,43.37h10.08c6.07,0,9.14-3.79,9.14-7.52,0-4.12-2.84-7.13-8.75-7.13h-10.47v14.65Z"/><path id="Path_148" class="cls-1" d="M247.97,46.71l-3.01,5.85c-1.15,1.93-1.81,4.11-1.95,6.35,0,2.4,1.5,3.01,3.01,3.57.46.11.61.23.61.39,0,.23-.28.28-.67.28s-2.4-.17-5.46-.17c-2.23,0-3.68.17-4.34.17-.56,0-.72-.11-.72-.28,0-.39.67-.61,1.06-.89,2.61-2.57,4.79-5.54,6.46-8.8l13.65-26.52c.17-.28.28-.44.39-.44h.11c.17,0,.34.23.46.44l16.38,30.64c.9,1.79,2.17,3.36,3.73,4.62.61.46,1.28.67,1.28.95,0,.17-.28.28-.78.28-.39,0-3.01-.17-6.24-.17-4.56,0-6.41.17-6.74.17-.28,0-.56-.05-.56-.17,0-.23.28-.34.72-.46,1.28-.46,1.56-1.5,1.56-2.9-.51-2.23-1.36-4.37-2.51-6.35l-3.18-6.57h-13.27ZM254.54,33.73l-5.85,11.59h11.81l-5.96-11.59Z"/><path id="Path_149" class="cls-1" d="M337.09,59.03c-4.87,3.55-10.8,5.34-16.83,5.07-10.92,0-21.06-6.13-21.06-18.94,0-11.48,10.14-18.94,21.06-18.94,5.61-.04,11.13,1.42,15.99,4.23l-1.73,5.24c-.23.67-.61,1.89-.78,1.89s-.46-.84-.61-1.45c-1.17-4.85-4.62-8.36-12.87-8.52-10.14,0-13.59,9.25-13.59,17.55s3.9,17.55,15.82,17.55c5.46,0,9.57-2.96,12.03-8.58.28-.67.34-1.17.61-1.17.23,0,.28.17.5,1l1.45,5.06Z"/><path id="Path_150" class="cls-1" d="M351.64,46.71l-3.01,5.85c-1.15,1.93-1.81,4.11-1.95,6.35,0,2.4,1.5,3.01,3.01,3.57.46.11.61.23.61.39,0,.23-.28.28-.67.28s-2.4-.17-5.46-.17c-2.23,0-3.68.17-4.34.17-.56,0-.72-.11-.72-.28,0-.39.67-.61,1.06-.89,2.61-2.57,4.79-5.54,6.46-8.8l13.65-26.52c.17-.28.28-.44.39-.44h.11c.17,0,.34.23.46.44l16.38,30.64c.9,1.79,2.17,3.36,3.73,4.62.61.46,1.28.67,1.28.95,0,.17-.28.28-.78.28-.39,0-3.01-.17-6.24-.17-4.56,0-6.41.17-6.74.17-.28,0-.56-.05-.56-.17,0-.23.28-.34.72-.46,1.28-.46,1.56-1.5,1.56-2.9-.51-2.23-1.36-4.37-2.51-6.35l-3.18-6.57h-13.26ZM358.21,33.73l-5.85,11.59h11.81l-5.96-11.59Z"/><path id="Path_151" class="cls-1" d="M393.97,56.96c0,2.74.72,4.56,2.74,5.46.56.28.78.34.78.46,0,.06-.11.11-.61.11h-12.42c-.28,0-.46,0-.46-.11s.39-.23.89-.46c2.12-1.11,2.62-2.74,2.62-5.46v-23.4c0-1.67-.05-4.51-2.23-5.29-.61-.23-1.17-.28-1.17-.61,0-.23.23-.34,1.06-.34h20.84c10.36,0,14.65,3.23,14.65,8.19,0,7.69-9.14,8.69-14.99,8.69v.11c5.63.67,10.97,2.62,12.93,8.47,1.28,3.79,3.34,8.75,5.07,9.36.5.34.95.5.95.72,0,.06-.28.11-2.12.11h-7.35l-2.67-7.29c-2.45-6.68-3.4-10.53-10.36-10.7l-8.13-.23v12.2ZM393.97,43.37h10.08c6.07,0,9.14-3.79,9.14-7.52,0-4.12-2.84-7.13-8.75-7.13h-10.47v14.65Z"/><path id="Path_152" class="cls-1" d="M435.97,43.48h10.31c4.07,0,7.63-1.89,8.41-4.18.11-.34.28-.5.46-.5s.23.28.23.84v9.19c0,.95-.06,1.17-.23,1.17-.23,0-.28-.39-.46-.78-1.62-4.12-6.18-4.34-10.08-4.34h-8.63v11.76c0,4.07,1.39,4.96,5.18,4.96h6.3c5.4-.31,10.53-2.45,14.54-6.07.45-.45.96-.84,1.5-1.17.08-.01.16.05.17.13,0,.01,0,.03,0,.04-.02.16-.06.31-.11.46l-2.45,8.02h-33.93c-1.28,0-1.67-.05-1.67-.23s1.17-.5,1.56-.84c2.05-1.62,2.45-3.18,2.45-8.25v-18.95c0-3.62-.23-6.02-2.45-6.57-.39-.17-.95-.34-.95-.5,0-.23.23-.34,1.06-.34h31.48l1.5,5.24c.26.66.43,1.35.5,2.05,0,.23-.11.46-.28.46-.29-.05-.54-.24-.67-.5-2.34-3.84-8.25-5.85-13.48-5.85h-10.26v14.76Z"/><path id="Path_153" class="cls-1" d="M14.08,31.82c1.61,1.85,2.87,3.97,3.71,6.27.46,1.16.81,2.32,1.28,3.36.63,1.93,1.37,3.83,2.2,5.69,1.14,2.34,2.96,4.28,5.22,5.57-.04-4.72-1.27-9.35-3.59-13.46-1.99-3.42-5.11-6.05-8.82-7.43"/><path id="Path_154" class="cls-1" d="M42.31,16.18c-.37-.1-.72-.26-1.04-.46-4.74-1.74-10.06-.19-13.11,3.83-2.77,4.08-3.04,9.36-.7,13.69l3.83-.58c-.91-5.7,2.45-12.16,11.02-16.48"/><path id="Path_155" class="cls-1" d="M28.16,40.26c-.22,1.44.07,2.92.81,4.18l.7.7c.23.23.58.46.7.7l.12.12v-1.04c.12-3.13.23-6.38.58-9.4l-3.02.46c.16,1.23.2,2.47.12,3.71v.59Z"/><path id="Path_156" class="cls-1" d="M32.33,14.2c1.25-3.32,2.22-6.74,2.9-10.22.13-.53.21-1.08.23-1.63.12-.54.12-1.09,0-1.63-.11-.34-.35-.68-.58-.68-.35,0-.81.46-1.28,1.28-.35.58-.58,1.28-.93,1.86-1.53,4.04-2.59,8.25-3.13,12.54.86-.62,1.8-1.12,2.79-1.51"/><path id="Path_157" class="cls-1" d="M42.96,12.83c.98.57,2.13.77,3.25.57,1.04-.58,2.2-1.16,3.25-1.74,3.16-1.92,5.95-4.4,8.24-7.31-2.62-1.67-5.78-2.25-8.82-1.63-1.04.11-1.97.35-2.9.46-2.62.64-5.32.88-8.01.7-.6,2.87-1.37,5.7-2.32,8.47,2.42-.66,4.99-.5,7.31.46"/><path id="Path_158" class="cls-1" d="M60.32,5.62c-2.55,3.48-5.74,6.43-9.4,8.7-1.16.7-2.44,1.39-3.6,1.97-1.6.8-3.15,1.69-4.65,2.67-.98.75-1.92,1.56-2.79,2.44.32-.24.67-.43,1.04-.58,2-.86,4.11-1.45,6.27-1.74,1.78-.23,3.53-.66,5.22-1.28,4.97-2.1,8.24-6.92,8.35-12.31v-.46c-.12.12-.23.35-.46.58"/><path id="Path_159" class="cls-1" d="M42.66,32.54c-2.17,1.05-4.16,2.42-5.93,4.06-1.6,1.67-2.69,3.76-3.13,6.03,4.03-1.12,7.66-3.38,10.44-6.5,2.11-2.3,3.7-5.03,4.64-8.01-1.31,1.37-2.84,2.5-4.52,3.36-.43.44-.95.79-1.51,1.04"/><path id="Path_160" class="cls-1" d="M16.6,8.98c2.67,2.9,3.95,7.89,5.11,12.65.35,1.39.7,2.9,1.16,4.29.19-2.65,1.07-5.21,2.55-7.43.47-.61.97-1.19,1.51-1.74-1.83-3.91-3.96-7.68-6.38-11.26-.9-1.46-2.03-2.75-3.36-3.83C15.26.51,13.03-.02,10.79.16c-2.53.02-5.04.45-7.43,1.28-.93.3-1.8.77-2.55,1.39-.38.35-.66.79-.81,1.28,2.75-.36,5.53-.24,8.24.35,3.2.57,6.13,2.15,8.35,4.52"/><path id="Path_161" class="cls-1" d="M22.33,3.88c1.82,2.65,3.48,5.4,4.99,8.24.51-3.29,1.36-6.52,2.55-9.63-.32-.1-.63-.21-.93-.35-.81-.35-1.75-.7-2.66-1.04C24.02.09,21.52-.23,19.08.16c1.3,1.03,2.4,2.29,3.25,3.71"/><path id="Path_162" class="cls-1" d="M27.83,79.17l.85-2.79c0-.12.14-.23.14-.35,1.19-3.52,2.08-7.13,2.68-10.79.16-.8.26-1.62.28-2.44.12-1.35.16-2.71.14-4.06,0-3.36-.42-6.61-.71-9.86l-2.25-1.86c-.14-.12-.28-.35-.42-.46v.23l.28,2.2c.66,4.49.89,9.04.71,13.58-.23,2.51-.65,4.99-1.27,7.43-.56,2.2-1.13,4.41-1.82,6.5-.28.7-.42,1.39-.7,2.2-.65,2.05-1.3,4.11-1.88,6.19h2.26c.54-1.89,1.14-3.79,1.74-5.73"/></g></g></svg>