<?xml version="1.0" encoding="UTF-8"?><svg id="Layer_2" xmlns="http://www.w3.org/2000/svg" xmlns:xlink="http://www.w3.org/1999/xlink" viewBox="0 0 105.37 105.37"><defs><style>.cls-1{fill:none;}.cls-2{fill:#fff;}.cls-3{clip-path:url(#clippath);}</style><clipPath id="clippath"><rect class="cls-1" width="105.37" height="105.37"/></clipPath></defs><g id="Layer_1-2"><g id="Group_226"><g class="cls-3"><g id="Group_225"><path id="Path_163" class="cls-2" d="M58.87,56.26c-1.75-.05-3.2,1.32-3.26,3.07s1.32,3.2,3.07,3.26c.06,0,.11,0,.17,0,1.75.05,3.2-1.32,3.26-3.07.05-1.75-1.32-3.2-3.07-3.26-.06,0-.11,0-.17,0"/><path id="Path_164" class="cls-2" d="M51.79,39.51c2.1-.03,3.77-1.75,3.75-3.85-.03-2.1-1.75-3.77-3.85-3.75h0c-2.1.05-3.79,1.75-3.83,3.86.05,2.11,1.8,3.78,3.91,3.73,0,0,0,0,.01,0"/><path id="Path_165" class="cls-2" d="M27.56,31.92c-2.1-.08-3.87,1.55-3.95,3.64,0,.01,0,.02,0,.03-.08,2.07,1.54,3.82,3.61,3.9.04,0,.07,0,.11,0,2.11.08,3.89-1.55,4-3.66,0-2.11-1.66-3.84-3.76-3.92"/><path id="Path_166" class="cls-2" d="M78.57,56.27c-1.68.01-3.06,1.34-3.14,3.02-.09,1.72,1.23,3.18,2.95,3.27.05,0,.1,0,.14,0,1.69.03,3.09-1.31,3.13-3,.09-1.73-1.25-3.2-2.98-3.29-.04,0-.08,0-.11,0"/><path id="Path_167" class="cls-2" d="M89.37.08H15.77C7.06.08,0,7.14,0,15.85h0v73.59c0,8.71,7.06,15.77,15.77,15.77h73.59c8.71,0,15.77-7.06,15.77-15.77V15.85C105.14,7.14,98.08.08,89.37.08M31.08,68.98c-1.09-.12-2.19.06-3.18.54-2.95,1.67-5.78,3.55-9.13,5.64.61-2.78,1.01-5.22,1.72-7.56.67-1.41.08-3.1-1.32-3.8-10.17-7.19-14.47-17.95-11.26-29.03,2.97-10.25,10.27-16.46,20.2-19.71,13.38-4.44,28.12-.13,36.99,10.84,3.01,3.86,4.84,8.51,5.27,13.39-8.13.1-15.93,3.25-21.85,8.83-6.03,5.63-9.02,13.8-8.06,21.99-3.32-.41-6.34-.86-9.37-1.12M90.79,82.91c-2.62,2.32-3.56,4.23-1.88,7.29.26.64.43,1.31.53,1.99-2.69-1.19-5.15-2.99-7.78-3.26s-5.36,1.24-8.1,1.51c-8.02,1.01-16.07-1.61-21.95-7.16-11.7-10.82-10.03-27.42,3.51-36.3,12.04-7.89,29.69-5.26,38.17,5.69,7.53,9.08,6.42,22.52-2.51,30.24"/></g></g></g></g></svg>