<?xml version="1.0" encoding="UTF-8"?><svg id="Layer_2" xmlns="http://www.w3.org/2000/svg" viewBox="0 0 105.62 105.22"><defs><style>.cls-1{fill:#fff;}</style></defs><g id="Layer_1-2"><g id="g1"><path id="path1" class="cls-1" d="M12.25.31C5.97,1.44,1.15,6.53.38,12.87c-.66,6.68,0,13.76,0,20.48v41.78c0,7.68-1.94,18.1,3,24.59,5.34,6.99,15.08,5.33,22.8,5.33h59.81c2.46.2,4.93.15,7.37-.14,6.29-1.13,11.1-6.22,11.88-12.56.66-6.68,0-13.76,0-20.48V30.07c0-7.68,1.94-18.1-3-24.59C96.89-1.49,87.15.17,79.43.17H19.63c-2.46-.2-4.93-.15-7.37.14M49.53,37.45l-2.87,7.78h4.92l-4.1,9.83,3.69.41c-.37,1.43-.97,2.79-1.78,4.03-.61.63-1.54.48-2.32.48-1.78,0-5.39.74-6.35-1.23-.44-.9.19-2.04.55-2.87.88-1.7,1.59-3.49,2.12-5.33-.96.11-1.93.07-2.87-.14-3.19-1.17.36-6.29,1.1-8.06.52-1.24,1.13-3.93,2.25-4.71,1.58-1.1,3.98-.34,5.67-.2M17.17,63.25c1.13,0,2.8.33,3.48-.82.72-1.23.2-3.93.2-5.33v-13.52c0-1.27-.64-5.13.48-5.94.92-.66,4.78-.52,5.19.61.36,2.31.39,4.65.08,6.96v13.11c.29,2.33.1,4.7-.55,6.96-.89,2.01-5.05,3.8-7.1,2.25-.94-1.26-1.55-2.74-1.78-4.3M79.43,37.45v2.05c1.64-.18,3.29-.13,4.92.14,4.91,1.5,4.51,6.32,4.51,10.51.82-.06,1.65,0,2.46.14,4.71,1.18,4.1,5.88,4.1,9.69,0,2.03.38,4.43-.95,6.15-1.47,1.89-3.88,1.64-6.01,1.64-.66,0-1.76.22-2.32-.2-1.02-1.22-1.64-2.72-1.78-4.3,1.35,0,3.78.46,4.85-.55,1.26-1.19.75-5.83-.75-6.62-.93-.28-1.91-.35-2.87-.2h-6.15v11.88h-5.73v-11.88h-5.73v-5.74h5.73v-4.92h-3.69v-5.73h3.69v-2.05h5.73M66.32,39.5v5.73h-3.28v17.2h5.33v5.33h-18.84l2.2-5.12,5.17-.21v-17.2h-3.27v-5.73h12.71M89.67,45.23c-.13-1.23-.08-2.47.14-3.69,1.37-4.42,8.03-.86,4.71,2.8-.44.39-.99.65-1.57.75-1.08.18-2.18.22-3.28.14M17.17,45.23l-1.71,15.15-2.8,4.92-2.46-6.55,1.23-13.52h5.73M36.01,45.23l1.23,13.52-2.46,6.15h-.82c-1.85-3.39-2.84-7.19-2.87-11.06-.27-2.83-.82-5.75-.82-8.6h5.73M79.43,45.23v4.92h3.69v-4.92h-3.69M48.71,62.43l-2.05,5.33h-9.01l2.2-5.53,3.14.07,5.72.14Z"/></g></g></svg>